<svg width="current" height="current" viewBox="0 0 24 24" fill="none" xmlns="http://www.w3.org/2000/svg">
<path d="M17.2589 4.32153C15.323 4.32153 13.628 5.15403 12.5714 6.56122C11.5149 5.15403 9.81986 4.32153 7.88393 4.32153C6.34289 4.32327 4.86547 4.93621 3.77579 6.02589C2.68611 7.11557 2.07316 8.593 2.07143 10.134C2.07143 16.6965 11.8017 22.0084 12.2161 22.2278C12.3253 22.2865 12.4474 22.3173 12.5714 22.3173C12.6954 22.3173 12.8175 22.2865 12.9267 22.2278C13.3411 22.0084 23.0714 16.6965 23.0714 10.134C23.0697 8.593 22.4567 7.11557 21.3671 6.02589C20.2774 4.93621 18.8 4.32327 17.2589 4.32153ZM12.5714 20.709C10.8596 19.7115 3.57143 15.1675 3.57143 10.134C3.57291 8.99074 4.02774 7.89471 4.83617 7.08628C5.6446 6.27785 6.74064 5.82302 7.88393 5.82153C9.70736 5.82153 11.2383 6.79278 11.8777 8.35278C11.9342 8.49034 12.0303 8.608 12.1538 8.6908C12.2774 8.7736 12.4227 8.81781 12.5714 8.81781C12.7201 8.81781 12.8655 8.7736 12.989 8.6908C13.1125 8.608 13.2087 8.49034 13.2652 8.35278C13.9046 6.78997 15.4355 5.82153 17.2589 5.82153C18.4022 5.82302 19.4983 6.27785 20.3067 7.08628C21.1151 7.89471 21.5699 8.99074 21.5714 10.134C21.5714 15.16 14.2814 19.7106 12.5714 20.709Z" fill="black"/>
</svg>
